Coordinates
nRows=287
nColumns=2
inDegrees=yes
endheader
time	ankle_angle_r	
3.02722	 -0.453981	
3.06048	 -0.434155	
3.09375	 -0.419501	
3.12702	 -0.413164	
3.16028	 -0.415913	
3.19355	 -0.424941	
3.22681	 -0.434205	
3.26008	 -0.440057	
3.29335	 -0.442804	
3.32661	 -0.441377	
3.35988	 -0.436029	
3.39315	 -0.433446	
3.42641	 -0.437817	
3.45968	 -0.444447	
3.49294	 -0.448882	
3.52621	 -0.451173	
3.55948	 -0.452674	
3.59274	 -0.456673	
3.62601	 -0.464217	
3.65927	 -0.471514	
3.69254	 -0.477193	
3.72581	 -0.483079	
3.75907	 -0.490121	
3.79234	 -0.499580	
3.8256	 -0.512026	
3.85887	 -0.525376	
3.89214	 -0.535717	
3.9254	 -0.536825	
3.95867	 -0.523871	
3.99194	 -0.503392	
4.0252	 -0.491206	
4.05847	 -0.495068	
4.09173	 -0.508534	
4.125	 -0.520557	
4.15827	 -0.524188	
4.19153	 -0.520119	
4.2248	 -0.511823	
4.25806	 -0.499757	
4.29133	 -0.485463	
4.3246	 -0.472595	
4.35786	 -0.462461	
4.39113	 -0.457003	
4.4244	 -0.456857	
4.45766	 -0.455180	
4.49093	 -0.448782	
4.52419	 -0.444033	
4.55746	 -0.444099	
4.59073	 -0.447763	
4.62399	 -0.453259	
4.65726	 -0.454764	
4.69052	 -0.449739	
4.72379	 -0.443619	
4.75706	 -0.440135	
4.79032	 -0.438992	
4.82359	 -0.438661	
4.85685	 -0.436293	
4.89012	 -0.432905	
4.92339	 -0.432859	
4.95665	 -0.435622	
4.98992	 -0.437647	
5.02319	 -0.438617	
5.05645	 -0.440987	
5.08972	 -0.445595	
5.12298	 -0.447875	
5.15625	 -0.444275	
5.18952	 -0.440881	
5.22278	 -0.446071	
5.25605	 -0.460362	
5.28931	 -0.476679	
5.32258	 -0.483668	
5.35585	 -0.475795	
5.38911	 -0.463099	
5.42238	 -0.461088	
5.45565	 -0.471956	
5.48891	 -0.482233	
5.52218	 -0.481335	
5.55544	 -0.475346	
5.58871	 -0.475137	
5.62198	 -0.482015	
5.65524	 -0.491533	
5.68851	 -0.498803	
5.72177	 -0.498508	
5.75504	 -0.490614	
5.78831	 -0.480531	
5.82157	 -0.470283	
5.85484	 -0.459246	
5.8881	 -0.446547	
5.92137	 -0.430818	
5.95464	 -0.417559	
5.9879	 -0.414947	
6.02117	 -0.418639	
6.05444	 -0.418773	
6.0877	 -0.416230	
6.12097	 -0.416223	
6.15423	 -0.418242	
6.1875	 -0.419551	
6.22077	 -0.416816	
6.25403	 -0.409065	
6.2873	 -0.402548	
6.32056	 -0.401680	
6.35383	 -0.403527	
6.3871	 -0.406353	
6.42036	 -0.409343	
6.45363	 -0.412084	
6.4869	 -0.419602	
6.52016	 -0.432097	
6.55343	 -0.439744	
6.58669	 -0.437351	
6.61996	 -0.431138	
6.65323	 -0.430439	
6.68649	 -0.436908	
6.71976	 -0.442440	
6.75302	 -0.441728	
6.78629	 -0.441254	
6.81956	 -0.447864	
6.85282	 -0.458981	
6.88609	 -0.468691	
6.91935	 -0.471566	
6.95262	 -0.467922	
6.98589	 -0.467592	
7.01915	 -0.473798	
7.05242	 -0.477969	
7.08569	 -0.476337	
7.11895	 -0.472185	
7.15222	 -0.469753	
7.18548	 -0.471520	
7.21875	 -0.472313	
7.25202	 -0.466259	
7.28528	 -0.457696	
7.31855	 -0.453980	
7.35181	 -0.456571	
7.38508	 -0.460869	
7.41835	 -0.460185	
7.45161	 -0.453490	
7.48488	 -0.445958	
7.51815	 -0.442008	
7.55141	 -0.443365	
7.58468	 -0.448174	
7.61794	 -0.450890	
7.65121	 -0.448752	
7.68448	 -0.444077	
7.71774	 -0.441001	
7.75101	 -0.443021	
7.78427	 -0.447432	
7.81754	 -0.447367	
7.85081	 -0.443297	
7.88407	 -0.441124	
7.91734	 -0.444645	
7.9506	 -0.457236	
7.98387	 -0.476440	
8.01714	 -0.491275	
8.0504	 -0.496879	
8.08367	 -0.499501	
8.11694	 -0.504796	
8.1502	 -0.511254	
8.18347	 -0.514046	
8.21673	 -0.512454	
8.25	 -0.509842	
8.28327	 -0.506398	
8.31653	 -0.502660	
8.3498	 -0.504755	
8.38306	 -0.512494	
8.41633	 -0.516500	
8.4496	 -0.514323	
8.48286	 -0.511083	
8.51613	 -0.507454	
8.5494	 -0.502300	
8.58266	 -0.497997	
8.61593	 -0.496540	
8.64919	 -0.498689	
8.68246	 -0.503719	
8.71573	 -0.509515	
8.74899	 -0.516466	
8.78226	 -0.522017	
8.81552	 -0.519244	
8.84879	 -0.509769	
8.88206	 -0.501743	
8.91532	 -0.499133	
8.94859	 -0.502471	
8.98185	 -0.506906	
9.01512	 -0.506181	
9.04839	 -0.504099	
9.08165	 -0.505827	
9.11492	 -0.506924	
9.14819	 -0.501992	
9.18145	 -0.491275	
9.21472	 -0.480850	
9.24798	 -0.479221	
9.28125	 -0.484528	
9.31452	 -0.487260	
9.34778	 -0.486384	
9.38105	 -0.484273	
9.41431	 -0.480517	
9.44758	 -0.477212	
9.48085	 -0.472211	
9.51411	 -0.459899	
9.54738	 -0.444316	
9.58065	 -0.434340	
9.61391	 -0.432822	
9.64718	 -0.435192	
9.68044	 -0.431720	
9.71371	 -0.419141	
9.74698	 -0.407392	
9.78024	 -0.405133	
9.81351	 -0.411023	
9.84677	 -0.419325	
9.88004	 -0.421301	
9.91331	 -0.413753	
9.94657	 -0.406221	
9.97984	 -0.404984	
10.0131	 -0.405517	
10.0464	 -0.404545	
10.0796	 -0.402503	
10.1129	 -0.400254	
10.1462	 -0.398921	
10.1794	 -0.399569	
10.2127	 -0.405435	
10.246	 -0.418303	
10.2792	 -0.433855	
10.3125	 -0.447964	
10.3458	 -0.458006	
10.379	 -0.458742	
10.4123	 -0.450421	
10.4456	 -0.444547	
10.4788	 -0.450190	
10.5121	 -0.462135	
10.5454	 -0.469540	
10.5786	 -0.469294	
10.6119	 -0.467838	
10.6452	 -0.469797	
10.6784	 -0.467884	
10.7117	 -0.456531	
10.745	 -0.445328	
10.7782	 -0.443983	
10.8115	 -0.450967	
10.8448	 -0.460003	
10.878	 -0.465596	
10.9113	 -0.468525	
10.9446	 -0.474470	
10.9778	 -0.481968	
11.0111	 -0.482837	
11.0444	 -0.474330	
11.0776	 -0.460752	
11.1109	 -0.448370	
11.1442	 -0.441087	
11.1774	 -0.437637	
11.2107	 -0.435085	
11.244	 -0.432087	
11.2772	 -0.430922	
11.3105	 -0.437534	
11.3437	 -0.451507	
11.377	 -0.462845	
11.4103	 -0.464048	
11.4435	 -0.456016	
11.4768	 -0.445508	
11.5101	 -0.441638	
11.5433	 -0.446135	
11.5766	 -0.450371	
11.6099	 -0.448612	
11.6431	 -0.444155	
11.6764	 -0.442493	
11.7097	 -0.447410	
11.7429	 -0.456995	
11.7762	 -0.463101	
11.8095	 -0.464631	
11.8427	 -0.471058	
11.876	 -0.485001	
11.9093	 -0.498306	
11.9425	 -0.505258	
11.9758	 -0.506502	
12.0091	 -0.507932	
12.0423	 -0.516559	
12.0756	 -0.530161	
12.1089	 -0.538037	
12.1421	 -0.534186	
12.1754	 -0.524792	
12.2087	 -0.521037	
12.2419	 -0.525942	
12.2752	 -0.532007	
12.3085	 -0.531569	
12.3417	 -0.523888	
12.375	 -0.510334	
12.4083	 -0.491968	
12.4415	 -0.473712	
12.4748	 -0.462277	
12.5081	 -0.462425	
12.5413	 -0.473114	
